<svg xmlns="http://www.w3.org/2000/svg" width="256" height="256" viewBox="0 0 256 256"><rect width="256" height="256" fill="none"/><circle cx="128" cy="128" r="92" fill="none" stroke="#617736" stroke-width="10"/><path d="M128 48l58 24v46c0 38-24 67-58 86-34-19-58-48-58-86V72l58-24z" fill="#232E33" stroke="#FCF8F4" stroke-width="7" stroke-linejoin="round"/><path d="M128 70l38 16v30c0 26-16 47-38 60-22-13-38-34-38-60V86l38-16z" fill="none" stroke="#8D9D6D" stroke-width="4"/><rect x="104" y="104" width="48" height="42" rx="8" fill="#617736" stroke="#FCF8F4" stroke-width="5"/><path d="M116 104V92c0-8 5-14 12-14s12 6 12 14v12" stroke="#FCF8F4" stroke-width="5" stroke-linecap="round"/><circle cx="128" cy="122" r="5" fill="#232E33"/><path d="M128 126v10" stroke="#232E33" stroke-width="5" stroke-linecap="round"/><path d="M102 126H82M154 126h20M116 148l-12 14M140 148l12 14" stroke="#8D9D6D" stroke-width="5" stroke-linecap="round"/></svg>