<svg width="1600" height="520" viewBox="0 0 1600 520" fill="none" xmlns="http://www.w3.org/2000/svg">
  <rect width="1600" height="520" rx="28" fill="#101719"/>
  <rect x="24" y="24" width="1552" height="472" rx="22" stroke="#8D9D6D" stroke-opacity="0.35" stroke-width="2"/>

  <text x="90" y="96" fill="#FCF8F4" font-family="Segoe UI, Arial, sans-serif" font-size="58" font-weight="800" letter-spacing="6">CURRENT FOCUS</text>
  <rect x="90" y="112" width="200" height="6" rx="3" fill="#617736"/>
  <path d="M90 140 H360" stroke="#8D9D6D" stroke-opacity="0.35" stroke-width="2"/>

  <g transform="translate(70 190)">
    <rect width="340" height="220" rx="18" fill="#232E33" stroke="#8D9D6D" stroke-opacity="0.55" stroke-width="2"/>
    <circle cx="170" cy="80" r="46" stroke="#617736" stroke-width="4"/>
    <path d="M120 90c-16 0-28-12-28-28 0-14 10-25 24-28 5-18 20-30 38-30 14 0 27 7 34 19 4-1 7-2 11-2 16 0 28 12 31 27 11 4 19 14 19 27 0 16-12 28-28 28H120z" stroke="#FCF8F4" stroke-width="4" fill="none"/>
    <text x="170" y="160" text-anchor="middle" fill="#FCF8F4" font-family="Segoe UI, Arial" font-size="28" font-weight="700">CLOUD</text>
  </g>

  <g transform="translate(430 190)">
    <rect width="340" height="220" rx="18" fill="#232E33" stroke="#8D9D6D" stroke-opacity="0.55" stroke-width="2"/>
    <circle cx="170" cy="80" r="46" stroke="#617736" stroke-width="4"/>
    <rect x="132" y="50" width="76" height="18" rx="4" fill="#232E33" stroke="#FCF8F4" stroke-width="3"/>
    <rect x="132" y="74" width="76" height="18" rx="4" fill="#232E33" stroke="#FCF8F4" stroke-width="3"/>
    <rect x="132" y="98" width="76" height="18" rx="4" fill="#232E33" stroke="#FCF8F4" stroke-width="3"/>
    <circle cx="142" cy="59" r="3" fill="#8D9D6D"/>
    <circle cx="142" cy="83" r="3" fill="#8D9D6D"/>
    <circle cx="142" cy="107" r="3" fill="#8D9D6D"/>
    <text x="170" y="160" text-anchor="middle" fill="#FCF8F4" font-family="Segoe UI, Arial" font-size="28" font-weight="700">SERVERS</text>
  </g>

  <g transform="translate(790 190)">
    <rect width="340" height="220" rx="18" fill="#232E33" stroke="#8D9D6D" stroke-opacity="0.55" stroke-width="2"/>
    <circle cx="170" cy="80" r="46" stroke="#617736" stroke-width="4"/>
    <path d="M170 40 L210 56 V90 C210 118 190 138 170 152 C150 138 130 118 130 90 V56 L170 40 Z" stroke="#FCF8F4" stroke-width="4" fill="none" stroke-linejoin="round"/>
    <rect x="156" y="84" width="28" height="24" rx="4" fill="#617736"/>
    <path d="M160 84 V76 C160 70 164 66 170 66 C176 66 180 70 180 76 V84" stroke="#617736" stroke-width="4" stroke-linecap="round"/>
    <text x="170" y="160" text-anchor="middle" fill="#FCF8F4" font-family="Segoe UI, Arial" font-size="28" font-weight="700">DEFENSE</text>
  </g>

  <g transform="translate(1150 190)">
    <rect width="340" height="220" rx="18" fill="#232E33" stroke="#8D9D6D" stroke-opacity="0.55" stroke-width="2"/>
    <circle cx="170" cy="80" r="46" stroke="#617736" stroke-width="4"/>
    <path d="M128 100 L148 76 L168 96 L188 60" stroke="#FCF8F4" stroke-width="4" stroke-linecap="round" stroke-linejoin="round"/>
    <circle cx="128" cy="100" r="4" fill="#8D9D6D"/>
    <circle cx="148" cy="76" r="4" fill="#8D9D6D"/>
    <circle cx="168" cy="96" r="4" fill="#8D9D6D"/>
    <circle cx="188" cy="60" r="4" fill="#8D9D6D"/>
    <text x="170" y="160" text-anchor="middle" fill="#FCF8F4" font-family="Segoe UI, Arial" font-size="28" font-weight="700">OPS</text>
  </g>

  <text x="800" y="468" text-anchor="middle" fill="#617736" font-family="Segoe UI, Arial" font-size="28" font-weight="800" letter-spacing="10">ELIGEK</text>
</svg>